/* XPM */
static char *_ea3445b82e943538aedaabb21df020e[] = {
/* columns rows colors chars-per-pixel */
"16 16 136 2 ",
"   c #8E850B",
".  c #8F860A",
"X  c #8D850D",
"o  c #8E850C",
"O  c #8E850D",
"+  c #8C840E",
"@  c #8D840E",
"#  c #8C840F",
"$  c #8E850E",
"%  c #91870A",
"&  c #92880B",
"*  c #93890B",
"=  c #978C0B",
"-  c #988D0B",
";  c #9A8E0B",
":  c #998E0D",
">  c #9C8F0D",
",  c #9C900B",
"<  c #8C8410",
"1  c #8C8411",
"2  c #8C8412",
"3  c #8C8413",
"4  c #8C8415",
"5  c #8C8416",
"6  c #8D8417",
"7  c #8D8518",
"8  c #8D8519",
"9  c #8D851A",
"0  c #8D851B",
"q  c #8D851C",
"w  c #8D861D",
"e  c #8E861E",
"r  c #8E861F",
"t  c #B19F14",
"y  c #B3A115",
"u  c #B6A315",
"i  c #B7A416",
"p  c #BCA71D",
"a  c #BCA71E",
"s  c #BDA71E",
"d  c #BEA81D",
"f  c #8E8620",
"g  c #8F8722",
"h  c #8F8723",
"j  c #8F8824",
"k  c #8F8825",
"l  c #908927",
"z  c #918928",
"x  c #918929",
"c  c #918A29",
"v  c #918A2A",
"b  c #918A2B",
"n  c #928B2D",
"m  c #938C2F",
"M  c #9B9528",
"N  c #958F36",
"B  c #968F37",
"V  c #9C9933",
"C  c #989239",
"Z  c #99943E",
"A  c #9C973D",
"S  c #A8A535",
"D  c #ADAB38",
"F  c #CBB21F",
"G  c #CEB421",
"H  c #CFB521",
"J  c #D1B721",
"K  c #D0B622",
"L  c #D1B722",
"P  c #D5BA24",
"I  c #D7BB24",
"U  c #D7BB25",
"Y  c #DBBE26",
"T  c #DFC128",
"R  c #E1C329",
"E  c #E3C52A",
"W  c #E6C72C",
"Q  c #E5C433",
"!  c #E6C533",
"~  c #E9C833",
"^  c #EBCA33",
"/  c #EDCC33",
"(  c #EFCD33",
")  c #EECD36",
"_  c #EFCD38",
"`  c #EDCC3B",
"'  c #EECD3A",
"]  c #F1CF32",
"[  c #F1CE34",
"{  c #F1CF3B",
"}  c #F3D032",
"|  c #F3D139",
" . c #F2D03A",
".. c #F3D13B",
"X. c #F4D138",
"o. c #F7D539",
"O. c #F6D43B",
"+. c #F3D23E",
"@. c #F4D23C",
"#. c #F5D33E",
"$. c #F6D43C",
"%. c #9B9543",
"&. c #9C9644",
"*. c #95914A",
"=. c #A49E54",
"-. c #A6A24D",
";. c #AAA64D",
":. c #B5B34E",
">. c #A1A158",
",. c #A5A059",
"<. c #A5A35D",
"1. c #B9BA55",
"2. c #8F907A",
"3. c #9A9B76",
"4. c #9B9B77",
"5. c #939178",
"6. c #A6A662",
"7. c #ADA865",
"8. c #AEA966",
"9. c #A2A36E",
"0. c #A0A271",
"q. c #AEAB70",
"w. c #A2A27A",
"e. c #A2A578",
"r. c #B3B374",
"t. c #B2B379",
"y. c #C8C769",
"u. c #C7CA73",
"i. c #A8AA80",
"p. c #C1BD85",
"a. c #C2BE87",
"s. c #CED180",
"d. c #CFD281",
"f. c #DADB87",
"g. c #DCDD8A",
"h. c None",
/* pixels */
"h.h.h.h.h.h.h.h.h.h.h.h.h.h.h.h.",
"h.h.h.h.h.h.h.h.h.h.h.h.h.h.h.h.",
"h.h.h.h.h.h.X.` ! ` | h.h.h.h.h.",
"h.h.h.h.O.W i > + > i E #.h.h.h.",
"h.h.h.+.J * 1 8 M V 1 % H | h.h.",
"h.h.h.Y + 7 h n D 1.h 7 + P O.h.",
"h.h.} , 3 l *.3.i.i.<.x 3 = ] h.",
"h.h.U + e Z 5.q.y.u.=.N h # J h.",
"h.h.a 4 x -.5.a.f.s.8.%.x 5 a ^ ",
"h.h.a 4 l ;.4.a.g.s.8.&.x 7 a ^ ",
"h.h.U # e C 9.w.r.t.,.N h 1 G h.",
"h.h.] > 3 x A 6.0.e.>.n 5 = / h.",
"h.h.h.U + 7 j m S :.k 7 @ J #.h.",
"h.h.h.| H   1 7 h e 3   F ] h.h.",
"h.h.h.h.#.R y * @ & t T | h.h.h.",
"h.h.h.h.h.h.| ` Q / { h.h.h.h.h."
};
