/* XPM */
static char *a2c6982ba1994f21c391e35222ea5766[] = {
/* columns rows colors chars-per-pixel */
"32 32 149 2 ",
"   c #877F0A",
".  c #8B8305",
"X  c #87800B",
"o  c #8B830C",
"O  c #918705",
"+  c #958B06",
"@  c #998E06",
"#  c #908709",
"$  c #968C0B",
"%  c #998E08",
"&  c #9B9005",
"*  c #9E9109",
"=  c #8C8413",
"-  c #8D851B",
";  c #958E1D",
":  c #A3950A",
">  c #A6980C",
",  c #AB9B0D",
"<  c #B1A00F",
"1  c #B5A311",
"2  c #BAA712",
"3  c #B6A318",
"4  c #BEA919",
"5  c #8E8722",
"6  c #8F8825",
"7  c #908926",
"8  c #918A2B",
"9  c #99932F",
"0  c #948D33",
"q  c #968F38",
"w  c #969037",
"e  c #999334",
"r  c #96903A",
"t  c #99943C",
"y  c #9C993D",
"u  c #A09C3D",
"i  c #BFBC3A",
"p  c #C0AB16",
"a  c #C3AC18",
"s  c #C7B11A",
"d  c #CBB31C",
"f  c #D0B71E",
"g  c #D2B91E",
"h  c #D5BA21",
"j  c #DCBF26",
"k  c #D4B929",
"l  c #DCBE2E",
"z  c #DABC30",
"x  c #DEC126",
"c  c #DFC12A",
"v  c #E4C42D",
"b  c #E9C72F",
"n  c #EBCA2E",
"m  c #F2CE2D",
"M  c #F5D12F",
"N  c #F9D32E",
"B  c #E4C432",
"V  c #E9C732",
"C  c #ECCA32",
"Z  c #F1CE32",
"A  c #F1CF38",
"S  c #F5D235",
"D  c #F8D332",
"F  c #F5D33A",
"G  c #F8D63B",
"H  c #FDDA3C",
"J  c #9B9542",
"K  c #9D9847",
"L  c #959049",
"P  c #9E994D",
"I  c #999552",
"U  c #9C9D5B",
"Y  c #A09B4E",
"T  c #A39F54",
"R  c #9FA144",
"E  c #A4A044",
"W  c #A5A24D",
"Q  c #A6A356",
"!  c #A8A657",
"~  c #A9A45D",
"^  c #AFAC5D",
"/  c #BDBB50",
"(  c #B2B358",
")  c #999A6B",
"_  c #8D8D7C",
"`  c #939375",
"'  c #9C9D73",
"]  c #92937C",
"[  c #96987D",
"{  c #9A9A7B",
"}  c #A0A063",
"|  c #ACA763",
" . c #ADAE6C",
".. c #A3A26D",
"X. c #B3AE6F",
"o. c #B5B167",
"O. c #BCB861",
"+. c #B7B269",
"@. c #B8B669",
"#. c #BFBE6A",
"$. c #A1A372",
"%. c #AAAB70",
"&. c #A5A57A",
"*. c #A5A87A",
"=. c #AEAE78",
"-. c #B4AF70",
";. c #B6B274",
":. c #BBBB76",
">. c #B0B37B",
",. c #BBB67B",
"<. c #CAC55C",
"1. c #CACD5D",
"2. c #D2CA55",
"3. c #F4D442",
"4. c #F9D843",
"5. c #FFE446",
"6. c #FFE945",
"7. c #FFE548",
"8. c #FFEB4B",
"9. c #FFF554",
"0. c #C3C868",
"q. c #D6CD66",
"w. c #D8D265",
"e. c #D0D768",
"r. c #D8D06C",
"t. c #DFDB6B",
"y. c #C4C370",
"u. c #C6CA74",
"i. c #CCCB7C",
"p. c #DFE66F",
"a. c #DAE263",
"s. c #DEE573",
"d. c #E7EE73",
"f. c #E2E97A",
"g. c #7F8084",
"h. c #828281",
"j. c #8C8D81",
"k. c #949581",
"l. c #969883",
"z. c #989980",
"x. c #BABB82",
"c. c #C0BB84",
"v. c #C2BE8A",
"b. c #C1C38C",
"n. c #C3C691",
"m. c #D2CEA0",
"M. c #DCD8AF",
"N. c #D4D1A4",
"B. c None",
/* pixels */
"B.B.B.B.B.B.B.B.B.B.B.B.B.B.B.B.B.B.B.B.B.B.B.B.B.B.B.B.B.B.B.B.",
"B.B.B.B.B.B.B.B.B.B.B.B.B.B.B.B.B.B.B.B.B.B.B.B.B.B.B.B.B.B.B.B.",
"B.B.B.B.B.B.B.B.B.B.B.B.B.B.B.B.B.B.B.B.B.B.B.B.B.B.B.B.B.B.B.B.",
"B.B.B.B.B.B.B.B.B.B.B.B.B.6.7.H S H 7.B.B.B.B.B.B.B.B.B.B.B.B.B.",
"B.B.B.B.B.B.B.B.B.B.8.M m V c l z v v B M 6.B.B.B.B.B.B.B.B.B.B.",
"B.B.B.B.B.B.B.B.B.D n b h 4 , * $ : < s x v m N B.B.B.B.B.B.B.B.",
"B.B.B.B.B.B.B.6.m x 1 @ X X o = -       . : s b Z 8.B.B.B.B.B.B.",
"B.B.B.B.B.B.S b g @ X o = = - 7 5 ; - - = X . , x C N B.B.B.B.B.",
"B.B.B.B.B.F C f . o = = - - y / 8 i 5 - - = = X * x C B.B.B.B.B.",
"B.B.B.B.B.M h O o = - - 5 6 R a.e 2.8 5 5 - = = X > n S B.B.B.B.",
"B.B.B.B.G b & o = - 5 8 8 t U 0.I O.L J 8 7 - - = X 2 C H B.B.B.",
"B.B.B.H Z s . = - - 8 0 J ) _ ] z.k.l.*.u 0 7 - = o O m S B.B.B.",
"B.B.B.G Z , o = - 6 8 Y ` h.[ >.&.=.&.' P q 8 5 - = . g C H B.B.",
"B.B.B.Z b O o - - 8 t ] h.' :.p.:.w.o.^ P J 0 7 - = o , C 4.B.B.",
"B.B.B.V h o = - 7 0 } h...+.x.s.v.q.;.| T K r 8 5 - = + C A B.B.",
"B.B.B.B 4 o - 5 8 q $.j.@.;.b.f.m.q.c.X.~ Y y 0 8 - = o l C B.B.",
"B.B.B B 2 = - 7 8 r $.l.:.,.n.f.M.r.v.;.| T J q 8 5 - o k B B.B.",
"B.B.B.B a = = 7 8 r  .j.#.;.n.f.N.r.c.;.| Y J 0 7 5 = o l V B.B.",
"B.B.B.C f o = - 8 8 ( _ %.#.x.s.v.q.;.| T K r 8 5 -   + C A B.B.",
"B.B.B.Z b . = = 5 8 y  .k.' u.d.i.t.y.O.Y J 0 7 5 = = , V G B.B.",
"B.B.B.G C > o = - 6 8 E ^ z.] z.k.{ ] { W q 8 7 - = o d V 4.B.B.",
"B.B.B.H Z a o o - 5 8 0 y ! $.{ ` { _ ) u 0 7 - = o . m S B.B.B.",
"B.B.B.B.S v @ o = - 6 8 8 r Q e.P <.J t 8 7 7 - = o < C H B.B.B.",
"B.B.B.B.9.Z g . = = - 5 5 8 y 1.q <.8 7 7 - - = o & b S B.B.B.B.",
"B.B.B.B.B.F C s . o = = - - 7 e 8 9 6 - - = = X & x C B.B.B.B.B.",
"B.B.B.B.B.B.Z B f .   X = - - - 5 - - = = X . : x V S B.B.B.B.B.",
"B.B.B.B.B.B.B.m n x < O . o = = = = o X . @ a b C 6.B.B.B.B.B.B.",
"B.B.B.B.B.B.B.B.8.S b b f 1 * O o $ > 4 j b n S B.B.B.B.B.B.B.B.",
"B.B.B.B.B.B.B.B.B.B.6.D C B B l z c B B Z M 8.B.B.B.B.B.B.B.B.B.",
"B.B.B.B.B.B.B.B.B.B.B.B.B.5.H 4.3.4.H 5.B.B.B.B.B.B.B.B.B.B.B.B.",
"B.B.B.B.B.B.B.B.B.B.B.B.B.B.B.B.B.B.B.B.B.B.B.B.B.B.B.B.B.B.B.B.",
"B.B.B.B.B.B.B.B.B.B.B.B.B.B.B.B.B.B.B.B.B.B.B.B.B.B.B.B.B.B.B.B."
};
