/* XPM */
static char *_832013840fa4648ad4409c1988a741b[] = {
/* columns rows colors chars-per-pixel */
"64 64 172 2 ",
"   c #867F05",
".  c #897F25",
"X  c #8D8404",
"o  c #87800B",
"O  c #8C840C",
"+  c #878006",
"@  c #908704",
"#  c #948A02",
"$  c #998E02",
"%  c #9D9202",
"&  c #8C8413",
"*  c #8D851B",
"=  c #938C1E",
"-  c #A29504",
";  c #A79907",
":  c #AA9C0A",
">  c #AC9D07",
",  c #A59610",
"<  c #AFA00A",
"1  c #B4A30C",
"2  c #B9A70F",
"3  c #BAA80E",
"4  c #B6A312",
"5  c #BDA911",
"6  c #B9A612",
"7  c #8F8721",
"8  c #8F8824",
"9  c #8E862A",
"0  c #908926",
"q  c #928A2B",
"w  c #948D33",
"e  c #968E3A",
"r  c #969037",
"t  c #97903A",
"y  c #99923D",
"u  c #9B9534",
"i  c #C2AE14",
"p  c #C7B116",
"a  c #C9B216",
"s  c #CDB519",
"d  c #D4BB1D",
"f  c #D9BF1F",
"g  c #D0B71B",
"h  c #C9B121",
"j  c #DCBE2E",
"k  c #D5BB21",
"l  c #C6AE21",
"z  c #DEC123",
"x  c #DFC034",
"c  c #E3C525",
"v  c #E7C827",
"b  c #E3C52C",
"n  c #E6C829",
"m  c #ECCB2C",
"M  c #F0CF2E",
"N  c #F4D12E",
"B  c #FBD52C",
"V  c #E4C433",
"C  c #E8C733",
"Z  c #ECCA33",
"A  c #F1CE33",
"S  c #F5D133",
"D  c #FAD533",
"F  c #FED936",
"G  c #FEDB3B",
"H  c #FFE439",
"J  c #FFEB3C",
"K  c #9B9543",
"L  c #9F994A",
"P  c #A29B4D",
"I  c #A19B45",
"U  c #A39D53",
"Y  c #9FA04D",
"T  c #9FA156",
"R  c #A6A34C",
"E  c #ACAA4B",
"W  c #A6A447",
"Q  c #B7B74B",
"!  c #A4A255",
"~  c #A6A159",
"^  c #A9A45D",
"/  c #ADA858",
"(  c #B1AE56",
")  c #AEB05A",
"_  c #BFB751",
"`  c #BEBB54",
"'  c #B6B659",
"]  c #8B8C7D",
"[  c #85867E",
"{  c #92937C",
"}  c #9A9B7C",
"|  c #93947A",
" . c #8E9079",
".. c #ABA662",
"X. c #AEA965",
"o. c #ADAB69",
"O. c #A5A86F",
"+. c #B2AD6C",
"@. c #B9AE6E",
"#. c #AFB266",
"$. c #B4B563",
"%. c #B3B46C",
"&. c #BCB96A",
"*. c #A5A779",
"=. c #B3AF71",
"-. c #ADB174",
";. c #B6B174",
":. c #BAB376",
">. c #BABE71",
",. c #BAB57A",
"<. c #BCB97E",
"1. c #B5B87C",
"2. c #C0BB56",
"3. c #C1B77E",
"4. c #C3C343",
"5. c #C6C85A",
"6. c #D4D64D",
"7. c #FFDC42",
"8. c #FFEE43",
"9. c #FFEC4B",
"0. c #FFF144",
"q. c #FFF24A",
"w. c #FFF450",
"e. c #C2C263",
"r. c #C9C265",
"t. c #C6CA67",
"y. c #C3C46A",
"u. c #CCC66A",
"i. c #CBCC69",
"p. c #D2D46E",
"a. c #D3DA63",
"s. c #C3C678",
"d. c #C4C874",
"f. c #DBE57A",
"g. c #EDF669",
"h. c #F6FF63",
"j. c #FAFF62",
"k. c #E2EC7C",
"l. c #E7EF74",
"z. c #E9F579",
"x. c #EBF677",
"c. c #E6EE69",
"v. c #767580",
"b. c #7D7D81",
"n. c #807F80",
"m. c #7E8080",
"M. c #808180",
"N. c #8B8A80",
"B. c #878880",
"V. c #929481",
"C. c #969881",
"Z. c #999C82",
"A. c #9EA080",
"S. c #AAAD82",
"D. c #A4A880",
"F. c #AFB382",
"G. c #B0B583",
"H. c #BEBB82",
"J. c #C2BD85",
"K. c #C3BF89",
"L. c #BFC28B",
"P. c #C4C18C",
"I. c #C9C592",
"U. c #CDCD9B",
"Y. c #C7C794",
"T. c #D2CFA1",
"R. c #D4D3A6",
"E. c #D9D6AC",
"W. c #D5D9AC",
"Q. c #D6D6AB",
"!. c #E1DEB7",
"~. c None",
/* pixels */
"~.~.~.~.~.~.~.~.~.~.~.~.~.~.~.~.~.~.~.~.~.~.~.~.~.~.~.~.~.~.~.~.~.~.~.~.~.~.~.~.~.~.~.~.~.~.~.~.~.~.~.~.~.~.~.~.~.~.~.~.~.~.~.~.",
"~.~.~.~.~.~.~.~.~.~.~.~.~.~.~.~.~.~.~.~.~.~.~.~.~.~.~.~.~.~.~.~.~.~.~.~.~.~.~.~.~.~.~.~.~.~.~.~.~.~.~.~.~.~.~.~.~.~.~.~.~.~.~.~.",
"~.~.~.~.~.~.~.~.~.~.~.~.~.~.~.~.~.~.~.~.~.~.~.~.~.~.~.~.~.~.~.~.~.~.~.~.~.~.~.~.~.~.~.~.~.~.~.~.~.~.~.~.~.~.~.~.~.~.~.~.~.~.~.~.",
"~.~.~.~.~.~.~.~.~.~.~.~.~.~.~.~.~.~.~.~.~.~.~.~.~.~.~.~.~.~.~.~.~.~.~.~.~.~.~.~.~.~.~.~.~.~.~.~.~.~.~.~.~.~.~.~.~.~.~.~.~.~.~.~.",
"~.~.~.~.~.~.~.~.~.~.~.~.~.~.~.~.~.~.~.~.~.~.~.~.~.~.~.~.~.~.~.~.~.~.~.~.~.~.~.~.~.~.~.~.~.~.~.~.~.~.~.~.~.~.~.~.~.~.~.~.~.~.~.~.",
"~.~.~.~.~.~.~.~.~.~.~.~.~.~.~.~.~.~.~.~.~.~.~.~.~.~.~.~.~.~.~.~.~.~.~.~.~.~.~.~.~.~.~.~.~.~.~.~.~.~.~.~.~.~.~.~.~.~.~.~.~.~.~.~.",
"~.~.~.~.~.~.~.~.~.~.~.~.~.~.~.~.~.~.~.~.~.~.~.~.~.~.8.q.J J F F F G H H J q.w.~.~.~.~.~.~.~.~.~.~.~.~.~.~.~.~.~.~.~.~.~.~.~.~.~.",
"~.~.~.~.~.~.~.~.~.~.~.~.~.~.~.~.~.~.~.~.~.~.~.q.B D A Z C V V V x V V V C Z M B 0.q.~.~.~.~.~.~.~.~.~.~.~.~.~.~.~.~.~.~.~.~.~.~.",
"~.~.~.~.~.~.~.~.~.~.~.~.~.~.~.~.~.~.~.~.w.0.D N Z C C Z Z Z V V V V V C Z Z C Z Z S D q.~.~.~.~.~.~.~.~.~.~.~.~.~.~.~.~.~.~.~.~.",
"~.~.~.~.~.~.~.~.~.~.~.~.~.~.~.~.~.~.w.B D M Z Z A A C b b z g l l h k c c b C A A Z Z N D q.~.~.~.~.~.~.~.~.~.~.~.~.~.~.~.~.~.~.",
"~.~.~.~.~.~.~.~.~.~.~.~.~.~.~.~.~.0.D S Z A S m c d 5 : $ X     + + X X % 1 p z n Z S Z Z S F q.~.~.~.~.~.~.~.~.~.~.~.~.~.~.~.~.",
"~.~.~.~.~.~.~.~.~.~.~.~.~.~.~.w.D S Z Z N m f 4 $ X X   &   O & O & O O + X X X ; a n S A Z M S 0.~.~.~.~.~.~.~.~.~.~.~.~.~.~.~.",
"~.~.~.~.~.~.~.~.~.~.~.~.~.~.0.D Z Z S m f 2 # X X O O O O & & & & & & & O O O O X X - s v S Z C M F ~.~.~.~.~.~.~.~.~.~.~.~.~.~.",
"~.~.~.~.~.~.~.~.~.~.~.~.~.q.N C Z S n i $ X X O O O O & & & & * * * & & & O o O O O X X ; d M S C Z D ~.~.~.~.~.~.~.~.~.~.~.~.~.",
"~.~.~.~.~.~.~.~.~.~.~.~.q.N C Z m d - X X O o O & & & & & * * * * * * * & & & & O O O O X # 5 v S C C D ~.~.~.~.~.~.~.~.~.~.~.~.",
"~.~.~.~.~.~.~.~.~.~.~.0.S C Z m 5 $ X O O O & O & & & * * = 0 7 8 7 8 = * * & & & & O O O O X ; d S C Z D 0.~.~.~.~.~.~.~.~.~.~.",
"~.~.~.~.~.~.~.~.~.~.q.N C Z m 1 X X O O & O & & * * * * 7 E 6.u q q 4._ 7 * * * & & & & O O O X $ g M V Z F ~.~.~.~.~.~.~.~.~.~.",
"~.~.~.~.~.~.~.~.~.q.D Z C D 1 X O O & & & & * * * 7 7 7 0 ( j.W q q g.t.8 7 7 * * * & & & & & O O $ z S C A F ~.~.~.~.~.~.~.~.~.",
"~.~.~.~.~.~.~.~.~.F Z C D g # O O & & & & * * * 7 7 0 9 q P j.P r w z.` 9 9 8 7 7 * * & & & & & O X : M Z Z S 8.~.~.~.~.~.~.~.~.",
"~.~.~.~.~.~.~.~.G S Z S c % O O O & & * * * 7 8 0 9 q q w P j.U y t z.` q q 9 8 8 8 7 7 * * & & & O X 2 D C A F ~.~.~.~.~.~.~.~.",
"~.~.~.~.~.~.~.~.F Z Z D > @ O O & & * * 7 7 0 q q q w w w P j.! y r x.` w 9 9 9 q 9 8 7 = * & & O O O $ d S Z S G ~.~.~.~.~.~.~.",
"~.~.~.~.~.~.~.G N Z D s # O O O & & * 7 8 9 q q w w w W ( y.l.d.y.y.k.p.e.e.5.Q w q q 8 8 7 * & & & O @ - M Z Z F ~.~.~.~.~.~.~.",
"~.~.~.~.~.~.~.D M Z M - @ O O & & * * 0 q q w w w y )  .{ V.C.C.C.} V.C.C.C.} -.Q w q q 0 8 7 & & O O O # a D C A G ~.~.~.~.~.~.",
"~.~.~.~.~.~.G N C D i # O O O & & * * 0 q w w e I #.{ n.b.v.v.v.v.v.v.v.v.v.v.V.' r w w 0 8 * * & & O O @ % M C Z D ~.~.~.~.~.~.",
"~.~.~.~.~.~.F A Z M % @ O O & & * * 0 q w w e R o.] m.b.b.*.S.F.F.F.*.G.G.G.F.%.! K w w q 9 7 * * & & O X @ p N Z S G ~.~.~.~.~.",
"~.~.~.~.~.G S Z Z d $ O O & & * * 0 0 q w w R O.[ m.b.] #.@.g.1.;.%.k.r.X...^ ! L K y w q q 8 7 * & & O O O - D C Z F ~.~.~.~.~.",
"~.~.~.~.~.7.S C N 1 @ O O & & * = 7 q q w R O.[ m.m.] %.+.+.h.1.;.;.z.e.X.^ ^ ~ P L K e w q 0 7 * * & & O O $ c C Z D ~.~.~.~.~.",
"~.~.~.~.~.F C C N % O O O & * * 7 0 q w r %.M.b.m. .%.+.+.@.h.L.H.<.z.r.@.+...^ P L K r r q q 0 7 * & & O O @ s Z Z A 7.~.~.~.~.",
"~.~.~.~.~.D C C n $ O O & & * 7 7 q w w R } M.n. .$.+.;.,.:.h.L.K.J.z.r.;.@.X...~ L L K r w q 0 7 * * & O O O < A V Z G ~.~.~.~.",
"~.~.~.~.~.S C V k @ O & & * 7 7 8 q w r $.Z.M.m.>.o.+.,.J.,.h.Y.Y.I.z.u.H.;.+...^ U L K y r w q 7 7 * & & O O - S V C F ~.~.~.~.",
"~.~.~.~.~.Z V C p O O & & * * 8 q w w y $.A.[ N.s.+.;.,.J.3.j.U.T.U.z.u.H.,.=.o...U P K K e w q 0 7 * * & & O # A V V S ~.~.~.~.",
"~.~.~.~.~.V V V 6 O O & * * 7 0 q w r y $.} b.N.s.+.,.H.P.3.h.R.E.R.z.u.K.H.;.+.X.^ U P K r w w q 7 7 * & & & X b V V V ~.~.~.~.",
"~.~.~.~.~.x x x 4 O & & & 7 7 q w e r K $.A.b.N.s.;.<.J.P.J.h.W.!.E.z.u.K.J.,.=.+.^ U L L K r w w 0 7 * & & & O x x x V ~.~.~.~.",
"~.~.~.~.~.V V V 6 O & & * 7 7 0 q w r K $.A.M.N.s.;.,.J.I.J.h.W.!.E.z.u.K.J.,.=.o.^ U P K y r q q 0 7 * * & & @ b x V V ~.~.~.~.",
"~.~.~.~.~.C V C 6 O O & & * 7 0 q w r K $.A.M.N.d.=.:.<.K.3.h.T.R.R.z.u.J.,.=.+...~ P L K y w w q 8 * * & & O @ c V V Z ~.~.~.~.",
"~.~.~.~.~.A V V g @ O & & * 7 7 q q w y ' *.m.B.p.+.=.,.J.3.h.Y.U.I.z.u.H.,.+.X.^ ! L K y r w q 0 7 * * & & O $ S x V S ~.~.~.~.",
"~.~.~.~.~.S C C z $ O & & & * 7 0 q q r E s.m.b.>.e.%.:.,.3.h.Y.I.K.z.r.,.;.o...~ P L K y w q q 7 7 * & & O O > M V C G ~.~.~.~.",
"~.~.~.~.~.D C C Z $ O O & & * * 7 0 q w r a.} m.b.>.t.;.:.:.h.L.J.J.z.r.;.+.o.^ ~ L L y u w q 0 7 * * & & O @ 5 A C Z 7.~.~.~.~.",
"~.~.~.~.~.G Z C D ; X O & & & = 7 0 q w r R a.} M.v.-.t.%.@.h.H.,.:.z.r.+.X...~ P L K y w q 0 8 7 * & O O O # z C C S ~.~.~.~.~.",
"~.~.~.~.~.7.M C S i # O O & & * = 7 0 q r w R a.*.B.b.-.t.%.c.1.;.;.f.&.o...../ R K y t q q 7 7 * & & & O @ $ M C Z F ~.~.~.~.~.",
"~.~.~.~.~.~.D Z Z v $ O O O & & * * 0 q w w y P 5.>.V.v.V.} V.Z.C.C.V.Z.Z.Z.D.y.) K t w w 0 8 7 * & O O O X 1 D C A G ~.~.~.~.~.",
"~.~.~.~.~.~.G A C D > X O O & & * * 7 0 q w r y K ` t.V.m.v.v.v.v.v.v.v.v.v.v.{ 2.K r q q 0 = * & & & O O $ z Z Z S 9.~.~.~.~.~.",
"~.~.~.~.~.~.G S A A c $ X O O & * * * 7 q w w r y e Q u.*.} N.{ V.V.V.V.{ V.N.O.R w w q 0 7 7 * & & O O X < F C A G ~.~.~.~.~.~.",
"~.~.~.~.~.~.~.G M C D < @ O O & & * 7 7 0 q q w w e e R ` p.x.d.y.y.k.p.e.e.&.E w w q q 8 7 * & & & O O $ c M Z S G ~.~.~.~.~.~.",
"~.~.~.~.~.~.~.G S A A m % O O O & * * * 7 0 q q q w w w e P j.! K e x._ w w q 9 q q 0 8 7 7 * & O & O X 3 F C Z F ~.~.~.~.~.~.~.",
"~.~.~.~.~.~.~.~.G M C D p # O O & & * * * 7 7 0 9 q q w w ! h.! K y x.2.w q q q 9 9 7 7 * * & & & @ @ - M Z Z D 9.~.~.~.~.~.~.~.",
"~.~.~.~.~.~.~.~.9.D A Z N 1 @ O O & & * * * * 8 7 0 q q q ) h.P e e h.i.q q q 8 7 7 * 7 & * & & O O $ z D C A F ~.~.~.~.~.~.~.~.",
"~.~.~.~.~.~.~.~.~.D S C S m % O &   & & & * * * 7 7 7 0 q P 4.u w w 4.( q 9 7 7 7 * & & & & & O O @ 5 S C C D ~.~.~.~.~.~.~.~.~.",
"~.~.~.~.~.~.~.~.~.~.F A C S d % O O O & & & & * * * * 7 8 7 . 9 q 9 . * 7 7 * * * & & & & O & O X 1 M C C N w.~.~.~.~.~.~.~.~.~.",
"~.~.~.~.~.~.~.~.~.~.~.D C V M f $ X O O O O & & & * * * * 7 7 9 9 8 7 7 * * * & & & & O O O o X 2 M Z V A 0.~.~.~.~.~.~.~.~.~.~.",
"~.~.~.~.~.~.~.~.~.~.~.~.D Z C A z 2 X O o O & O & & & * * * 7 * 7 7 * * * * & & & O O O O X % g Z Z C M q.~.~.~.~.~.~.~.~.~.~.~.",
"~.~.~.~.~.~.~.~.~.~.~.~.~.D Z C A M s $ X X O O O O O & & & * * * * * & & & & O O O O X X < c S Z C Z q.~.~.~.~.~.~.~.~.~.~.~.~.",
"~.~.~.~.~.~.~.~.~.~.~.~.~.~.D Z C A A c 3 # X X O O O O O & & * * & & & O O O O O X X - d m A C C M 0.~.~.~.~.~.~.~.~.~.~.~.~.~.",
"~.~.~.~.~.~.~.~.~.~.~.~.~.~.~.D N C Z S M c 3 X X X o O & O O O & & & O o O O X X - g v S A Z Z D w.~.~.~.~.~.~.~.~.~.~.~.~.~.~.",
"~.~.~.~.~.~.~.~.~.~.~.~.~.~.~.~.q.B A C Z A M c p : @ X X     . O o o + X X $ 2 d m A A C Z N D ~.~.~.~.~.~.~.~.~.~.~.~.~.~.~.~.",
"~.~.~.~.~.~.~.~.~.~.~.~.~.~.~.~.~.~.B D A Z Z A C n c f a 2 < , , , 4 5 s z m m Z Z Z Z N D q.~.~.~.~.~.~.~.~.~.~.~.~.~.~.~.~.~.",
"~.~.~.~.~.~.~.~.~.~.~.~.~.~.~.~.~.~.~.w.B D A C Z Z Z C V b x j j j V V V Z Z C C Z N D q.~.~.~.~.~.~.~.~.~.~.~.~.~.~.~.~.~.~.~.",
"~.~.~.~.~.~.~.~.~.~.~.~.~.~.~.~.~.~.~.~.~.~.8.D S Z C C V V V V V x V C V C Z Z N B q.~.~.~.~.~.~.~.~.~.~.~.~.~.~.~.~.~.~.~.~.~.",
"~.~.~.~.~.~.~.~.~.~.~.~.~.~.~.~.~.~.~.~.~.~.~.~.w.J J N A Z V V x V C Z S N 8.0.~.~.~.~.~.~.~.~.~.~.~.~.~.~.~.~.~.~.~.~.~.~.~.~.",
"~.~.~.~.~.~.~.~.~.~.~.~.~.~.~.~.~.~.~.~.~.~.~.~.~.~.~.~.~.~.~.~.~.~.~.~.~.~.~.~.~.~.~.~.~.~.~.~.~.~.~.~.~.~.~.~.~.~.~.~.~.~.~.~.",
"~.~.~.~.~.~.~.~.~.~.~.~.~.~.~.~.~.~.~.~.~.~.~.~.~.~.~.~.~.~.~.~.~.~.~.~.~.~.~.~.~.~.~.~.~.~.~.~.~.~.~.~.~.~.~.~.~.~.~.~.~.~.~.~.",
"~.~.~.~.~.~.~.~.~.~.~.~.~.~.~.~.~.~.~.~.~.~.~.~.~.~.~.~.~.~.~.~.~.~.~.~.~.~.~.~.~.~.~.~.~.~.~.~.~.~.~.~.~.~.~.~.~.~.~.~.~.~.~.~.",
"~.~.~.~.~.~.~.~.~.~.~.~.~.~.~.~.~.~.~.~.~.~.~.~.~.~.~.~.~.~.~.~.~.~.~.~.~.~.~.~.~.~.~.~.~.~.~.~.~.~.~.~.~.~.~.~.~.~.~.~.~.~.~.~.",
"~.~.~.~.~.~.~.~.~.~.~.~.~.~.~.~.~.~.~.~.~.~.~.~.~.~.~.~.~.~.~.~.~.~.~.~.~.~.~.~.~.~.~.~.~.~.~.~.~.~.~.~.~.~.~.~.~.~.~.~.~.~.~.~."
};
